PathFileType	4	(X/Y/Z)	/Users/itak/Documents/Research/Walk-IL/dataset/trc/00237_00009.trc
DataRate	CameraRate	NumFrames	NumMarkers	Units	OrigDataRate	OrigDataStartFrame	OrigNumFrames
100.000000	100.000000	4	53	mm	100.000000	0	948
Frame#	Time	RPSI			LPSI			L3			STRN			T10			C7			CLAV			RBAK			LBAK			LSHO			LUPA			LAEL			LAOL			LWTS			LWPS			LFRA			LIFD			LHPS			LHTS			RSHO			RUPA			RAEL			RAOL			RWTS			RWPS			RFRA			RIFD			RHTS			RHPS			RBHD			LFHD			RFHD			LBHD			LHIP			RHIP			RASI			LASI			LKNE			LTHI			LANK			LTIP			LTOE			LMT1			LMT5			LHEE			RKNE			RTHI			RANK			RTIP			RTOE			RMT1			RMT5			RHEE			
		X1	Y1	Z1	X2	Y2	Z2	X3	Y3	Z3	X4	Y4	Z4	X5	Y5	Z5	X6	Y6	Z6	X7	Y7	Z7	X8	Y8	Z8	X9	Y9	Z9	X10	Y10	Z10	X11	Y11	Z11	X12	Y12	Z12	X13	Y13	Z13	X14	Y14	Z14	X15	Y15	Z15	X16	Y16	Z16	X17	Y17	Z17	X18	Y18	Z18	X19	Y19	Z19	X20	Y20	Z20	X21	Y21	Z21	X22	Y22	Z22	X23	Y23	Z23	X24	Y24	Z24	X25	Y25	Z25	X26	Y26	Z26	X27	Y27	Z27	X28	Y28	Z28	X29	Y29	Z29	X30	Y30	Z30	X31	Y31	Z31	X32	Y32	Z32	X33	Y33	Z33	X34	Y34	Z34	X35	Y35	Z35	X36	Y36	Z36	X37	Y37	Z37	X38	Y38	Z38	X39	Y39	Z39	X40	Y40	Z40	X41	Y41	Z41	X42	Y42	Z42	X43	Y43	Z43	X44	Y44	Z44	X45	Y45	Z45	X46	Y46	Z46	X47	Y47	Z47	X48	Y48	Z48	X49	Y49	Z49	X50	Y50	Z50	X51	Y51	Z51	X52	Y52	Z52	X53	Y53	Z53	

1	0	327.3453063964844	1052.500366210938	820.8515014648438	317.6930236816406	1058.9248046875	941.0615844726562	329.6081237792969	1133.363159179688	895.87109375	86.69778442382812	1313.443481445312	885.4219970703125	338.4682922363281	1259.132446289062	886.4140625	273.817626953125	1520.302001953125	888.093994140625	110.8736419677734	1431.0576171875	884.1558227539062	355.62744140625	1383.078857421875	816.5115966796875	292.0335388183594	1481.919311523438	999.0961303710938	201.6105041503906	1481.56494140625	1053.99169921875	230.8379364013672	1362.145874023438	1132.212646484375	213.8683624267578	1150.22802734375	1154.303955078125	288.7633056640625	1135.7099609375	1111.180908203125	134.3295440673828	913.4576416015625	1086.069580078125	154.5608673095703	897.1865234375	1167.7607421875	193.2459716796875	1042.112426757812	1164.752685546875	130.1842346191406	716.9314575195312	1096.032470703125	141.1617889404297	807.9523315429688	1161.266723632812	100.8269271850586	811.7741088867188	1106.088989257812	219.0321502685547	1475.746826171875	717.4510498046875	240.4088439941406	1409.823974609375	651.2825317382812	259.2234497070312	1127.188598632812	616.6227416992188	295.7281494140625	1121.8271484375	704.3573608398438	124.5780792236328	913.0775146484375	666.092041015625	174.9497528076172	898.5237426757812	600.2521362304688	232.7231292724609	1058.778442382812	605.7572021484375	105.6654357910156	716.9142456054688	666.9572143554688	83.82682037353516	792.1614990234375	651.0101928710938	136.9365234375	791.65576171875	599.4151000976562	226.8625335693359	1665.319702148438	818.441162109375	40.74626541137695	1727.270385742188	932.5525512695312	28.10470390319824	1718.940673828125	833.7232055664062	199.0292510986328	1685.239501953125	954.4520263671875	208.5885772705078	991.3577880859375	1074.362182617188	239.7442474365234	1008.490417480469	707.4251708984375	138.9491729736328	1048.607666015625	737.419677734375	112.4914627075195	1030.485961914062	1018.367797851562	187.0551910400391	504.9294128417969	1019.512145996094	185.1349487304688	647.290283203125	1055.804565429688	256.5584716796875	36.58956909179688	1000.023071289062	230.1464233398438	282.614013671875	1022.646606445312	44.57645034790039	44.02495193481445	937.6470336914062	113.4674301147461	37.97784805297852	896.5148315429688	127.9686584472656	36.17259216308594	1013.290222167969	319.5587463378906	43.20693969726562	949.839599609375	213.0900115966797	513.8624877929688	753.708740234375	188.6551666259766	780.86865234375	700.7728271484375	269.2718200683594	35.15830612182617	795.595458984375	207.1476287841797	399.8515930175781	773.37841796875	54.3245735168457	43.68710708618164	819.2515869140625	106.9608535766602	40.4140625	867.150146484375	161.5087127685547	36.66257476806641	759.4192504882812	325.9054565429688	34.41296005249023	858.5352172851562	
2	0.01	327.267578125	1052.553100585938	820.8017578125	317.5282897949219	1058.968017578125	940.9990234375	329.5043334960938	1133.333862304688	895.8399658203125	86.52732849121094	1313.59375	885.4935302734375	338.2812194824219	1259.04150390625	886.4004516601562	273.8032531738281	1520.265014648438	888.1412963867188	110.6792221069336	1431.149169921875	884.2380981445312	355.4354858398438	1383.019775390625	816.5093994140625	292.0025634765625	1481.8369140625	999.1508178710938	201.6302642822266	1481.633666992188	1054.015869140625	230.6620941162109	1362.067138671875	1132.24365234375	213.4555816650391	1150.132690429688	1154.198364257812	288.347900390625	1135.587890625	1111.109130859375	133.6039123535156	913.4838256835938	1085.8671875	153.8973236083984	897.17626953125	1167.546997070312	192.7687377929688	1042.05224609375	1164.608154296875	129.3363647460938	717.0547485351562	1095.772583007812	140.385986328125	808.0228271484375	1161.0751953125	100.1307678222656	811.8359375	1105.780395507812	218.9388580322266	1475.79443359375	717.4931640625	240.2539215087891	1409.855102539062	651.3239135742188	258.8346557617188	1127.223388671875	616.6106567382812	295.4642639160156	1121.856689453125	704.3295288085938	124.3474960327148	913.00830078125	666.077392578125	174.6026763916016	898.5641479492188	600.1488037109375	232.3396606445312	1058.82568359375	605.745361328125	105.5959701538086	716.8739013671875	666.8773193359375	83.52562713623047	792.135009765625	650.8742065429688	136.6847991943359	791.6661376953125	599.3111572265625	227.6505279541016	1664.917846679688	818.4947509765625	41.91960525512695	1728.08154296875	932.647216796875	29.30089569091797	1719.796630859375	833.79931640625	199.9788970947266	1684.99658203125	954.5095825195312	208.3506469726562	991.3357543945312	1074.334228515625	239.6393737792969	1008.50634765625	707.3850708007812	138.8001861572266	1048.60498046875	737.443115234375	112.2954864501953	1030.480346679688	1018.422790527344	187.0821228027344	504.8860778808594	1019.551025390625	185.1476593017578	647.2801513671875	1055.796020507812	256.5590515136719	36.58986282348633	1000.022888183594	230.1681671142578	282.6137084960938	1022.647338867188	44.58029174804688	44.02266311645508	937.6358642578125	113.4587936401367	37.94495391845703	896.5032958984375	127.9687728881836	36.16633605957031	1013.294006347656	319.5719604492188	43.21549987792969	949.836669921875	213.0296936035156	513.8491821289062	753.6951293945312	188.5743255615234	780.8572387695312	700.7374877929688	269.2569885253906	35.16287994384766	795.5914916992188	207.1048736572266	399.8497314453125	773.3721923828125	54.33161163330078	43.69282531738281	819.2534790039062	106.9630355834961	40.41591262817383	867.1566772460938	161.5069274902344	36.66291809082031	759.4247436523438	325.9000549316406	34.41548538208008	858.5368041992188	
3	0.02	327.1651306152344	1052.608764648438	820.7405395507812	317.3357238769531	1059.016845703125	940.9241333007812	329.3666687011719	1133.293334960938	895.798583984375	86.33391571044922	1313.769287109375	885.5745849609375	338.0593566894531	1258.921142578125	886.3814697265625	273.815185546875	1520.212036132812	888.194091796875	110.4737014770508	1431.2705078125	884.3284912109375	355.2256469726562	1382.935913085938	816.50537109375	291.9856567382812	1481.736083984375	999.210205078125	201.6634063720703	1481.716552734375	1054.046997070312	230.4612731933594	1361.974243164062	1132.279541015625	212.9591369628906	1150.023681640625	1154.077026367188	287.8351745605469	1135.4345703125	1111.025634765625	132.7175750732422	913.5435791015625	1085.6162109375	153.0411071777344	897.1785278320312	1167.28466796875	192.1415252685547	1041.989379882812	1164.437622070312	128.1925506591797	717.2261352539062	1095.434936523438	139.3674163818359	808.0971069335938	1160.837890625	99.20458221435547	811.931640625	1105.402099609375	218.84130859375	1475.846557617188	717.5422973632812	240.0821838378906	1409.88671875	651.3684692382812	258.3667297363281	1127.260498046875	616.598876953125	295.1209411621094	1121.87841796875	704.2959594726562	124.0224990844727	912.944091796875	666.0438842773438	174.1639862060547	898.6148681640625	600.0232543945312	231.8595275878906	1058.879028320312	605.7264404296875	105.4606323242188	716.8378295898438	666.7673950195312	83.13907623291016	792.1099243164062	650.7135009765625	136.3334655761719	791.6801147460938	599.1793212890625	228.6038818359375	1664.46484375	818.58935546875	43.31124877929688	1729.000732421875	932.7647094726562	30.72476005554199	1720.797485351562	833.89013671875	201.0966033935547	1684.704345703125	954.6080322265625	208.0934143066406	991.3118286132812	1074.299682617188	239.5052947998047	1008.52099609375	707.338134765625	138.6136627197266	1048.599243164062	737.47216796875	112.0496673583984	1030.477661132812	1018.491516113281	187.1105651855469	504.8364868164062	1019.59521484375	185.1504364013672	647.2672119140625	1055.7822265625	256.5612182617188	36.59123229980469	1000.022216796875	230.1913757324219	282.6116943359375	1022.651245117188	44.58272933959961	44.01831436157227	937.6234130859375	113.4487762451172	37.90847015380859	896.4908447265625	127.9702987670898	36.15997314453125	1013.297241210938	319.5845336914062	43.22381591796875	949.8325805664062	212.9444427490234	513.8353881835938	753.678955078125	188.4538116455078	780.8418579101562	700.6929321289062	269.2402648925781	35.16839981079102	795.5868530273438	207.0398559570312	399.8445129394531	773.3687133789062	54.33833694458008	43.69774627685547	819.2557983398438	106.9645080566406	40.41719818115234	867.162841796875	161.5046234130859	36.66089248657227	759.429443359375	325.8938598632812	34.41874694824219	858.5384521484375	
4	0.03	327.0382080078125	1052.659912109375	820.6707153320312	317.1290893554688	1059.066284179688	940.842041015625	329.1968994140625	1133.241455078125	895.7477416992188	86.13441467285156	1313.95751953125	885.6580200195312	337.8193969726562	1258.77392578125	886.3571166992188	273.8666687011719	1520.14208984375	888.24658203125	110.2816314697266	1431.417602539062	884.4174194335938	355.0216979980469	1382.825927734375	816.498291015625	291.9927978515625	1481.622192382812	999.2674560546875	201.7127532958984	1481.807861328125	1054.084106445312	230.2540588378906	1361.874389648438	1132.316528320312	212.4069213867188	1149.910766601562	1153.95068359375	287.2505798339844	1135.255615234375	1110.937255859375	131.7089233398438	913.6470947265625	1085.328002929688	152.0135345458984	897.2005615234375	1166.9873046875	191.3803863525391	1041.932250976562	1164.253173828125	126.7670745849609	717.4471435546875	1095.038696289062	138.1270446777344	808.1770629882812	1160.55615234375	98.07039642333984	812.06591796875	1104.973388671875	218.7533874511719	1475.897583007812	717.5944213867188	239.9113616943359	1409.914306640625	651.4109497070312	257.8500366210938	1127.295288085938	616.588623046875	294.7068176269531	1121.883666992188	704.2583618164062	123.604362487793	912.8968505859375	665.9893798828125	173.6488800048828	898.6738891601562	599.883056640625	231.3082733154297	1058.933349609375	605.6991577148438	105.2358779907227	716.813720703125	666.6253051757812	82.67804718017578	792.0921020507812	650.5402221679688	135.8796234130859	791.6983642578125	599.024169921875	229.6642913818359	1664.004638671875	818.7330322265625	44.82080078125	1729.943969726562	932.900390625	32.2791862487793	1721.8642578125	833.990478515625	202.2992248535156	1684.381713867188	954.7547607421875	207.8537902832031	991.2896118164062	1074.259521484375	239.3441467285156	1008.531799316406	707.287841796875	138.3956298828125	1048.589721679688	737.5048828125	111.7645034790039	1030.480834960938	1018.570678710938	187.1358642578125	504.7877807617188	1019.637573242188	185.1372833251953	647.251953125	1055.7626953125	256.5646057128906	36.59342575073242	1000.021301269531	230.2133483886719	282.6082153320312	1022.657958984375	44.5825080871582	44.01225280761719	937.6107788085938	113.4385299682617	37.87332153320312	896.4793701171875	127.9729919433594	36.15420913696289	1013.299865722656	319.5948486328125	43.23096466064453	949.8277587890625	212.8328857421875	513.8223876953125	753.6617431640625	188.2875213623047	780.8226928710938	700.6419067382812	269.2236328125	35.17462539672852	795.582275390625	206.9501495361328	399.8343505859375	773.3705444335938	54.34377670288086	43.70100402832031	819.2584228515625	106.9647445678711	40.41695022583008	867.16845703125	161.5020141601562	36.65745544433594	759.4337158203125	325.8872680664062	34.42279052734375	858.5401000976562	
